<svg width="18" height="18" viewBox="0 0 18 18" fill="none" xmlns="http://www.w3.org/2000/svg">
    <path class="fill" d="M16.5 9C16.5 4.85786 13.1421 1.5 9 1.5C4.85786 1.5 1.5 4.85786 1.5 9C1.5 13.1421 4.85786 16.5 9 16.5C13.1421 16.5 16.5 13.1421 16.5 9Z" fill="white" fill-opacity="0.12"/>
    <path class="line" d="M17 9C17 4.58172 13.4182 1 9 1C4.58172 1 1 4.58172 1 9C1 13.4182 4.58172 17 9 17C13.4182 17 17 13.4182 17 9Z" stroke="white" stroke-opacity="0.32"/>
    <path class="line" d="M11.2496 11.25L6.75 6.75M6.75048 11.25L11.25 6.75" stroke="white" stroke-opacity="0.32" stroke-linecap="round" stroke-linejoin="round"/>
</svg>